<svg width="82" height="24" viewBox="0 0 82 24" fill="none" xmlns="http://www.w3.org/2000/svg">
<g clip-path="url(#clip0_7744_8868)">
<path d="M11.1311 0.0252L10.7648 0V3.2076L11.0066 3.2376C13.0614 3.483 16.5083 4.9554 16.5083 12.0444C16.5083 15.7608 15.5549 20.2944 11.0155 20.7792L10.7642 20.8068V23.9964L11.1514 23.9556C16.7226 23.4 20.0481 18.9456 20.0481 12.0438C20.0481 4.6938 16.8818 0.4254 11.1311 0.0252Z" fill="#0068B2"/>
<path d="M9.08943 20.754C4.29512 20.1156 3.57927 15.048 3.57927 12.084C3.57927 9.64803 4.11616 3.91323 9.08943 3.24843L9.23248 3.22923V0.0300293L8.92603 0.0660293C3.42006 0.698429 0 5.37963 0 12.282C0 19.248 3.26204 23.5104 8.94817 23.9748L9.23308 23.9988V20.772L9.08943 20.754Z" fill="#0068B2"/>
<path d="M41.7873 0.54657H37.2755L27.229 11.3766L36.9283 23.5404H41.4054L31.5918 11.4012L41.7873 0.54657Z" fill="#0068B2"/>
<path d="M22.6143 23.5404V0.54657H26.1145V23.5404H22.6143Z" fill="#0068B2"/>
<path d="M45.2666 0.54657L41.9243 4.05597H49.9801V23.541H53.4803V4.05597H60.518V0.54657H45.2666Z" fill="#0068B2"/>
<path d="M70.4878 20.754C65.694 20.1156 64.9782 15.0474 64.9782 12.084C64.9782 9.64799 65.5151 3.91319 70.4884 3.24839L70.6583 3.22559V0.0275879L70.3262 0.0653879C64.8196 0.698988 61.3989 5.37959 61.3989 12.2814C61.3989 19.2474 64.661 23.5104 70.3471 23.9754L70.6577 24V20.7768L70.4878 20.754Z" fill="#0068B2"/>
<path d="M72.5311 0.02517L72.1899 0.00177002V3.21117L72.4066 3.23757C74.4608 3.48297 77.9078 4.95537 77.9078 12.0444C77.9078 15.7608 76.9549 20.2944 72.4156 20.7792L72.1905 20.8032V23.9934L72.5509 23.9556C78.1215 23.4 81.4482 18.9456 81.4482 12.0438C81.4482 4.69377 78.2795 0.42537 72.5311 0.02517Z" fill="#0068B2"/>
</g>
<defs>
<clipPath id="clip0_7744_8868">
<rect width="82" height="24" fill="white"/>
</clipPath>
</defs>
</svg>
