<svg xmlns="http://www.w3.org/2000/svg" width="115.659" height="27.298" fill="none" overflow="visible"><g><path d="M 0.309 1.169 C 0.722 0.445 1.492 -0.002 2.326 0 C 2.698 -0.006 3.054 0.114 3.41 0.206 L 18.084 4.097 C 18.386 4.18 18.695 4.243 18.981 4.375 C 18.638 4.33 18.285 4.278 17.947 4.375 C 12.633 5.783 7.321 7.196 2.007 8.603 C 1.543 8.711 1.082 8.887 0.736 9.226 C 0.361 9.556 0.17 10.03 0 10.488 C 0.006 7.808 0 5.13 0.002 2.451 C 0.001 2.008 0.081 1.556 0.309 1.171 Z" fill="rgb(29,218,224)"></path><path d="M 17.967 4.556 C 18.305 4.458 18.658 4.51 19 4.556 C 19.475 4.752 19.91 5.109 20.1 5.599 C 20.25 5.962 20.237 6.362 20.235 6.748 L 20.235 17.613 C 20.245 18.066 20.111 18.527 19.811 18.873 C 19.535 19.206 19.128 19.409 18.71 19.498 C 18.189 19.528 17.693 19.345 17.196 19.221 C 12.059 17.856 6.921 16.497 1.784 15.132 C 1.36 15.029 0.975 14.808 0.674 14.494 C 0.365 14.188 0.201 13.777 0.041 13.383 C -0.034 12.772 0.021 12.153 0.003 11.538 C 0.02 11.248 -0.019 10.955 0.019 10.668 C 0.19 10.21 0.38 9.736 0.756 9.406 C 1.101 9.066 1.563 8.89 2.026 8.782 C 7.34 7.375 12.653 5.963 17.966 4.556 Z" fill="rgb(0,5,227)"></path><path d="M 91.31 7 L 93.196 7 L 93.196 9.883 C 92.567 9.886 91.94 9.883 91.312 9.885 C 91.308 8.924 91.31 7.962 91.31 7 Z M 44.087 11.587 C 45.101 11.144 46.252 11.076 47.333 11.269 C 48.341 11.449 49.283 11.979 49.95 12.755 C 50.789 13.687 51.247 14.933 51.263 16.182 C 51.265 16.462 51.265 16.742 51.249 17.022 C 48.551 17.022 45.854 17.02 43.156 17.023 C 43.228 17.803 43.616 18.519 44.231 19.005 C 44.975 19.622 46 19.811 46.939 19.662 C 47.826 19.532 48.675 19.004 49.087 18.191 L 51.054 18.191 C 50.763 19.121 50.191 19.969 49.398 20.542 C 48.179 21.46 46.555 21.697 45.081 21.414 C 44.14 21.242 43.278 20.779 42.614 20.09 C 41.825 19.289 41.326 18.248 41.197 17.131 C 41.1 16.208 41.156 15.254 41.487 14.38 C 41.947 13.16 42.892 12.119 44.087 11.587 Z M 45.014 13.187 C 44.085 13.55 43.403 14.36 43.204 15.337 C 45.201 15.339 47.199 15.34 49.197 15.337 C 49.129 15.026 49.016 14.726 48.861 14.447 C 48.414 13.653 47.561 13.116 46.66 13.013 C 46.109 12.954 45.535 12.98 45.014 13.187 Z M 66.647 11.279 C 67.843 11.049 69.16 11.145 70.215 11.8 C 70.689 12.078 71.05 12.496 71.41 12.903 C 71.423 12.416 71.412 11.928 71.416 11.441 L 73.283 11.441 L 73.284 21.241 L 71.417 21.241 C 71.407 20.723 71.437 20.202 71.399 19.685 C 70.924 20.329 70.319 20.898 69.565 21.195 C 68.522 21.608 67.34 21.621 66.266 21.325 C 65.116 20.991 64.14 20.166 63.546 19.135 C 63.04 18.265 62.847 17.244 62.857 16.245 C 62.87 15.215 63.114 14.165 63.692 13.3 C 64.362 12.276 65.438 11.513 66.647 11.28 Z M 67.348 13.051 C 66.585 13.192 65.903 13.614 65.437 14.234 C 64.8 15.038 64.623 16.139 64.833 17.129 C 65.034 18.081 65.651 18.893 66.515 19.341 C 67.265 19.708 68.146 19.775 68.958 19.596 C 69.77 19.414 70.479 18.872 70.908 18.163 C 71.385 17.397 71.496 16.441 71.325 15.565 C 71.116 14.493 70.33 13.543 69.297 13.175 C 68.675 12.955 67.994 12.942 67.348 13.051 Z M 109.281 11.317 C 110.376 11.072 111.553 11.115 112.605 11.521 C 113.91 12.033 114.91 13.186 115.362 14.498 C 115.649 15.306 115.692 16.174 115.641 17.022 C 112.944 17.022 110.246 17.019 107.549 17.022 C 107.637 18.176 108.497 19.183 109.586 19.533 C 110.729 19.901 112.102 19.711 112.987 18.86 C 113.187 18.668 113.339 18.434 113.471 18.191 C 114.13 18.19 114.788 18.19 115.447 18.191 C 115.15 19.135 114.565 19.993 113.754 20.568 C 112.524 21.476 110.891 21.7 109.415 21.401 C 108.496 21.223 107.655 20.765 107.007 20.09 C 106.101 19.187 105.586 17.925 105.55 16.65 C 105.496 15.582 105.712 14.483 106.273 13.562 C 106.938 12.466 108.02 11.605 109.281 11.317 Z M 109.838 13.057 C 108.726 13.287 107.808 14.222 107.596 15.337 C 109.594 15.339 111.592 15.339 113.591 15.337 C 113.438 14.617 113.027 13.946 112.412 13.531 C 111.677 13.001 110.711 12.885 109.838 13.057 Z M 29.5 11.373 C 31.393 11.371 33.288 11.374 35.182 11.372 C 36.352 11.377 37.53 11.838 38.338 12.694 C 39.013 13.44 39.333 14.435 39.518 15.406 C 39.773 16.79 39.501 18.22 38.756 19.414 C 38.01 20.583 36.608 21.206 35.25 21.24 C 33.978 21.244 32.706 21.24 31.435 21.242 L 31.435 24.631 L 29.5 24.631 Z M 32.569 13.292 C 31.954 13.425 31.452 13.994 31.435 14.629 L 31.435 17.999 C 31.441 18.727 32.091 19.375 32.819 19.387 C 33.382 19.389 33.946 19.386 34.509 19.387 C 34.872 19.385 35.239 19.408 35.597 19.333 C 36.324 19.201 36.956 18.757 37.327 18.118 C 37.613 17.588 37.667 16.972 37.667 16.381 C 37.643 15.662 37.553 14.903 37.137 14.295 C 36.689 13.639 35.894 13.282 35.113 13.261 C 34.483 13.254 33.853 13.263 33.225 13.258 C 33.005 13.258 32.784 13.247 32.569 13.292 Z M 53.911 11.819 C 54.387 11.537 54.949 11.436 55.497 11.439 C 57.28 11.441 59.063 11.439 60.847 11.44 L 60.847 13.277 C 59.017 13.281 57.188 13.269 55.36 13.282 C 54.885 13.29 54.546 13.781 54.635 14.233 C 54.65 14.563 54.905 14.851 55.23 14.91 C 56.286 15.155 57.345 15.387 58.402 15.628 C 58.984 15.773 59.598 15.842 60.132 16.133 C 60.865 16.511 61.419 17.243 61.519 18.069 C 61.569 18.549 61.551 19.046 61.379 19.502 C 61.067 20.339 60.356 20.965 59.485 21.167 C 59.196 21.229 58.9 21.254 58.605 21.243 C 56.75 21.24 54.895 21.243 53.039 21.241 L 53.039 19.405 L 58.741 19.405 C 59.004 19.411 59.252 19.283 59.401 19.066 C 59.575 18.816 59.585 18.483 59.515 18.196 C 59.442 17.898 59.165 17.701 58.875 17.646 C 57.54 17.35 56.202 17.059 54.865 16.764 C 53.863 16.59 52.97 15.832 52.723 14.832 C 52.587 14.289 52.607 13.72 52.781 13.188 C 52.971 12.612 53.394 12.129 53.911 11.819 Z M 74.834 11.442 C 75.519 11.439 76.204 11.442 76.887 11.44 C 77.631 13.79 78.363 16.145 79.113 18.493 C 79.873 16.15 80.583 13.789 81.327 11.44 C 81.943 11.442 82.559 11.44 83.177 11.441 C 83.913 13.781 84.637 16.124 85.385 18.459 L 85.424 18.464 C 86.166 16.125 86.894 13.78 87.634 11.44 C 88.311 11.442 88.988 11.44 89.666 11.441 L 86.399 21.242 C 85.769 21.244 85.139 21.24 84.51 21.244 C 83.747 18.892 83.002 16.534 82.242 14.181 C 81.49 16.531 80.76 18.889 80.014 21.242 L 78.101 21.242 C 77.011 17.976 75.921 14.709 74.834 11.442 Z M 91.31 11.441 L 93.195 11.441 L 93.195 21.242 L 91.31 21.242 Z M 96.802 11.712 C 97.222 11.509 97.694 11.442 98.157 11.44 C 99.951 11.442 101.746 11.44 103.541 11.442 L 103.541 13.277 C 101.744 13.279 99.948 13.277 98.152 13.277 C 97.854 13.267 97.549 13.414 97.407 13.681 C 97.273 13.96 97.277 14.286 97.417 14.562 C 97.534 14.768 97.757 14.884 97.983 14.93 C 99.065 15.172 100.146 15.417 101.228 15.66 C 101.725 15.781 102.242 15.851 102.707 16.077 C 103.361 16.382 103.891 16.954 104.109 17.647 C 104.398 18.595 104.194 19.714 103.481 20.427 C 102.981 20.953 102.257 21.24 101.535 21.243 L 95.715 21.243 L 95.715 19.406 C 97.654 19.402 99.593 19.412 101.532 19.401 C 102.238 19.336 102.475 18.328 102.001 17.866 C 101.855 17.72 101.648 17.665 101.453 17.621 C 100.418 17.397 99.383 17.167 98.348 16.941 C 97.929 16.841 97.499 16.777 97.091 16.638 C 96.387 16.392 95.818 15.863 95.522 15.178 C 95.301 14.614 95.259 13.996 95.402 13.408 C 95.572 12.665 96.116 12.033 96.802 11.712 Z" fill="rgb(255,255,255)"></path><path d="M 0.02 13.501 C 0.182 13.894 0.346 14.306 0.655 14.611 C 0.95 14.931 1.345 15.141 1.764 15.25 C 6.901 16.614 12.039 17.974 17.176 19.339 C 17.673 19.462 18.169 19.645 18.69 19.615 C 18.503 19.695 18.31 19.757 18.112 19.8 C 14.809 20.67 11.51 21.557 8.206 22.422 C 8.193 23.401 8.204 24.379 8.2 25.358 C 8.195 25.704 8.242 26.068 8.094 26.393 C 7.883 26.913 7.35 27.291 6.786 27.295 C 5.142 27.297 3.498 27.294 1.853 27.296 C 1.536 27.295 1.203 27.325 0.907 27.189 C 0.356 26.963 -0.002 26.424 0.002 25.829 C 0.005 22.927 0.002 20.025 0.003 17.123 C 0.015 15.915 -0.02 14.706 0.021 13.5 Z" fill="rgb(141,7,248)"></path></g></svg>
