<svg width="160" height="24" viewBox="0 0 160 24" fill="none" xmlns="http://www.w3.org/2000/svg">
<path d="M1.40943 2.59424C2.20036 1.18856 3.78971 0.44636 5.31909 0.157728C7.63752 -0.170264 10.0084 0.041525 12.2894 0.532575C12.3681 1.99635 12.5162 3.45451 12.6136 4.91829C11.2792 4.45535 9.89785 4.01678 8.47155 4.04677C7.76497 4.09925 6.94218 4.29417 6.55983 4.9539C6.34804 5.47494 6.73976 5.99223 7.08087 6.35583C8.62524 7.94144 10.7263 8.95727 11.9576 10.8484C12.9435 12.1922 12.8648 14.0964 12.0513 15.5021C11.3279 16.801 9.97657 17.635 8.56714 18.0098C7.1296 18.424 5.61897 18.291 4.14581 18.2779C2.89757 18.1654 1.64933 17.9986 0.427326 17.71C0.238028 16.1937 0.168681 14.6662 0 13.1481C1.54625 13.7385 3.14497 14.3026 4.82054 14.2988C5.49714 14.2089 6.33118 14.1826 6.78287 13.5979C7.19895 13.045 6.73601 12.3815 6.33117 11.9804C5.57961 11.2944 4.80555 10.6328 4.03149 9.97124C3.14497 9.17094 2.15725 8.4531 1.49189 7.44289C0.487302 6.03721 0.522912 4.04865 1.40943 2.59424Z" fill="white"/>
<path d="M16.3374 0.303866C18.1517 0.303866 19.9678 0.294494 21.7821 0.311362C21.7015 2.26994 21.3829 4.2154 21.3698 6.1796C22.1101 5.44865 22.9891 4.81328 24.0293 4.60337C25.5568 4.27725 27.193 4.29974 28.6812 4.80578C30.0269 5.25935 31.0933 6.51884 31.1289 7.96762C31.2339 11.3113 30.6172 14.6324 30.7447 17.9798C28.8798 18.0117 27.015 18.0098 25.1501 17.9798C25.45 15.5864 25.6899 13.178 25.7142 10.7659C25.7499 10.0424 25.5868 9.13902 24.8446 8.81665C23.7594 8.43993 22.3406 8.78479 21.8008 9.87372C21.0886 11.2475 21.083 12.8481 20.9612 14.3569C20.8393 15.5789 20.8262 16.8065 20.8337 18.0323C19.0232 17.9461 17.209 18.0454 15.3984 17.9742C15.9682 13.0974 16.0825 8.18503 16.3131 3.28578C16.3224 2.29056 16.2999 1.29721 16.3374 0.303866Z" fill="white"/>
<path d="M40.2117 4.50415C42.2434 4.20802 44.3875 4.47979 46.2111 5.45439C47.688 6.27531 48.8538 7.71097 49.208 9.38092C49.6579 11.4988 49.3655 13.8978 47.9673 15.6165C46.7434 17.2415 44.7474 18.0736 42.7663 18.2686C41.1207 18.3548 39.4189 18.366 37.8652 17.7325C36.0528 17.0953 34.5403 15.5996 33.9949 13.7441C33.3426 11.525 33.6631 8.9311 35.1794 7.12808C36.4107 5.60808 38.315 4.79841 40.2117 4.50415ZM40.9614 8.41381C40.2492 8.61248 39.6419 9.14476 39.3683 9.83448C38.9147 10.9047 38.8248 12.1941 39.3458 13.255C39.8856 14.357 41.3737 14.7975 42.4514 14.2427C43.4991 13.7666 43.9658 12.5877 44.0689 11.5101C44.1326 10.6067 44.0033 9.57396 43.2986 8.92923C42.6932 8.33134 41.7598 8.21514 40.9614 8.41381Z" fill="white"/>
<path d="M52.5196 5.03093C55.4153 4.63921 58.3391 4.20064 61.2666 4.47615C62.5805 4.64483 63.9618 4.90348 65.0189 5.76188C66.6438 7.09821 67.401 9.27795 67.3392 11.3415C67.4235 13.6805 66.4845 16.1789 64.5072 17.5377C63.5213 18.2274 62.29 18.3774 61.1186 18.3005C59.6642 18.3099 58.3278 17.6483 57.1246 16.8986C56.9521 19.262 57.029 21.6385 56.7966 24.0001C55.0161 23.9832 53.2337 24.0095 51.4531 23.9851C51.828 19.9686 52.0866 15.9446 52.3097 11.9169C52.3434 9.62094 52.4221 7.32499 52.5196 5.03093ZM57.6006 8.547C57.4319 9.70903 57.2951 10.8879 57.4038 12.0631C57.5257 13.032 58.0992 14.0348 59.0644 14.3609C59.9809 14.7339 61.038 14.2091 61.5365 13.4106C62.1007 12.586 62.1475 11.5533 62.0763 10.5899C62.022 9.69403 61.4541 8.83563 60.6238 8.4814C59.651 8.1609 58.579 8.30522 57.6006 8.547Z" fill="white"/>
<path d="M69.6436 0.285077C71.4541 0.281329 73.2665 0.288826 75.077 0.283203C75.643 4.28845 76.7657 8.19249 77.3204 12.1996C77.8265 9.98613 78.4469 7.80264 78.9998 5.60229C79.4589 3.83676 79.8113 2.04874 80.2649 0.283203C82.304 0.288826 84.3432 0.277581 86.3824 0.288826C86.864 4.26034 87.6231 8.19249 88.1948 12.1528C89.2818 8.15875 90.7156 4.26783 91.8364 0.283203C93.6132 0.286952 95.39 0.281329 97.1667 0.286952C95.2981 6.20392 93.169 12.044 91.3697 17.9854C89.055 17.9985 86.7403 17.9629 84.4257 18.0191C83.9965 14.593 83.0312 11.2456 82.7351 7.80077C81.9254 11.2269 80.8984 14.6005 80.0156 18.0097C77.7927 17.9629 75.5699 17.9891 73.3471 18.0116C72.6836 13.624 71.5609 9.32078 70.6688 4.97629C70.3651 3.40381 69.9003 1.86693 69.6436 0.285077Z" fill="#EF9D4C"/>
<path d="M116.424 0.291075C118.265 0.276081 120.105 0.289201 121.947 0.285452C121.745 3.16428 121.496 6.03936 121.441 8.92569C121.237 10.4157 121.355 11.9226 121.188 13.4145C121.023 14.9439 121.128 16.4826 121.093 18.0176C119.254 17.9426 117.412 18.0082 115.571 18.0045C115.669 16.9718 115.697 15.9353 115.845 14.9064C115.798 13.6544 115.984 12.4174 116.038 11.171C115.982 9.59479 116.308 8.0373 116.237 6.46107C116.415 4.40878 116.426 2.35086 116.424 0.291075Z" fill="#EF9D4C"/>
<path d="M125.233 0.2907C127.054 0.275706 128.876 0.2907 130.698 0.283203C130.636 2.85466 130.278 5.40924 130.28 7.98445C130.25 9.04527 130.07 10.0967 130.1 11.1613C130.134 12.4751 129.849 13.774 129.909 15.0897C129.943 16.0643 129.853 17.0389 129.903 18.0154C128.055 17.9423 126.205 18.0135 124.357 17.9985C124.479 16.9058 124.5 15.8075 124.648 14.7186C124.592 13.1461 124.893 11.5942 124.85 10.0236C124.839 9.32827 124.961 8.6423 125.013 7.95258C125.045 5.398 125.289 2.84903 125.233 0.2907Z" fill="#EF9D4C"/>
<path d="M151.528 2.37341C153.188 1.98732 154.86 1.64059 156.532 1.30322C156.513 2.5196 156.36 3.72849 156.343 4.94487C157.342 4.95799 158.342 4.94674 159.341 4.95049C159.347 6.17437 159.188 7.38887 159.21 8.61275C158.217 8.60713 157.224 8.63337 156.232 8.59213C156.107 9.88536 156.204 11.1861 156.062 12.4774C156.097 13.0416 156.045 13.7632 156.573 14.123C157.394 14.6272 158.365 14.1474 159.207 13.9412C159.062 15.2682 158.768 16.5745 158.552 17.8921C157.278 18.2332 155.966 18.3513 154.65 18.2951C153.365 18.37 151.908 18.0289 151.153 16.895C150.411 15.7367 150.771 14.3048 150.731 13.0153C150.965 11.5609 150.819 10.0765 151.115 8.62962C150.413 8.62025 149.71 8.64274 149.009 8.61275C149.176 7.3945 149.237 6.165 149.217 4.93362C149.935 4.95611 150.656 4.95424 151.376 4.94674C151.509 4.09396 151.428 3.22994 151.528 2.37341Z" fill="#EF9D4C"/>
<path d="M100.693 5.19179C103.265 4.65763 105.889 4.24155 108.522 4.43834C109.667 4.62577 110.912 4.82256 111.785 5.66035C112.257 6.06706 112.529 6.64994 112.653 7.25157C112.807 8.98337 112.486 10.6983 112.437 12.4245C112.212 13.877 112.366 15.3483 112.205 16.8046C112.173 17.2057 112.186 17.6105 112.201 18.0134C110.413 17.9385 108.621 18.0284 106.833 17.9835C107.107 17.0051 106.989 15.9818 107.16 14.9884C107.309 14.0888 107.133 13.1629 107.362 12.2708C106.395 12.7318 105.321 12.8987 104.341 13.3204C103.694 13.5865 103.137 14.4149 103.733 15.0203C104.504 15.5863 105.529 15.2789 106.37 15.054C106.101 16.0924 105.703 17.0951 105.465 18.1428C104.378 18.3564 103.265 18.2871 102.165 18.2833C100.952 18.1784 99.6439 17.6705 99.0122 16.5647C98.1576 15.2827 98.1332 13.4384 99.1097 12.2146C99.8444 11.1088 101.132 10.5727 102.358 10.2072C103.687 9.7743 105.094 9.65809 106.425 9.23264C106.751 9.13331 106.991 8.88591 107.235 8.65913C107.233 8.43984 107.233 8.22055 107.236 8.00314C106.86 7.57582 106.297 7.37152 105.735 7.39214C103.831 7.47273 101.99 8.04063 100.21 8.68537C100.313 7.51397 100.603 6.36693 100.693 5.19179Z" fill="#EF9D4C"/>
<path d="M135.787 5.58968C137.255 4.62632 139.069 4.33206 140.797 4.40516C142.823 4.40329 145.097 4.99929 146.277 6.78357C147.376 8.24735 147.334 10.1759 147.119 11.904C146.073 12.0389 145.02 11.979 143.97 11.9921C142.006 11.9827 140.044 12.0127 138.081 11.9696C138.049 12.9892 138.52 14.0893 139.553 14.4305C141.693 15.2645 143.981 14.4042 146.094 13.8869C145.908 15.2214 145.576 16.5352 145.44 17.8791C144.203 18.0402 142.977 18.3682 141.719 18.2651C139.999 18.3008 138.227 18.4001 136.584 17.7853C135.032 17.2287 133.765 15.9392 133.251 14.3705C132.766 13.1129 132.871 11.7447 132.927 10.429C133.296 8.57159 134.142 6.64675 135.787 5.58968ZM139.659 7.77504C138.767 8.0543 138.407 9.01016 138.237 9.84232C139.594 9.84232 140.951 9.84795 142.31 9.83857C142.182 9.21258 142.171 8.47226 141.669 8.00744C141.088 7.61385 140.308 7.41706 139.659 7.77504Z" fill="#EF9D4C"/>
</svg>
