<svg width="86" height="24" viewBox="0 0 86 24" fill="none" xmlns="http://www.w3.org/2000/svg">
<path d="M71.1729 19.4779V2.82558H75.3766L75.6997 4.13173H75.8621C76.0994 3.78373 76.476 3.47819 76.9938 3.21788C77.5108 2.95665 78.1043 2.82558 78.7726 2.82558H81.9092V7.4945H78.9988C77.0372 7.4945 76.056 8.50711 76.056 10.5314V19.4779H71.1729ZM61.6089 19.8047C59.9705 19.8047 58.4945 19.4354 57.1791 18.6951C55.8637 17.9327 54.8289 16.8988 54.0738 15.5927C53.3197 14.2653 52.9422 12.7847 52.9422 11.1527C52.9422 9.51973 53.3197 8.05019 54.0738 6.74404C54.8289 5.41665 55.8637 4.38188 57.1791 3.6425C58.4945 2.88004 59.9705 2.49881 61.6089 2.49881C63.1615 2.49881 64.5738 2.86988 65.8458 3.60927C67.1391 4.34958 68.1526 5.37327 68.8855 6.6785C69.6185 7.96342 69.9849 9.38865 69.9849 10.956C69.9849 11.544 69.9314 12.0887 69.8234 12.589H57.7929C57.9221 13.5028 58.3431 14.2763 59.0548 14.9068C59.7655 15.517 60.6175 15.8216 61.6089 15.8216C62.3428 15.8216 62.9677 15.6803 63.4846 15.397C64.0025 15.1136 64.3911 14.82 64.6495 14.5154H69.5649C69.3489 15.2557 68.9178 16.0283 68.2717 16.8333C67.6246 17.6391 66.7292 18.336 65.5874 18.9231C64.4658 19.5111 63.1403 19.8047 61.6089 19.8047ZM65.1665 9.61758C65.0372 8.70281 64.6495 7.94127 64.0025 7.33204C63.3554 6.72281 62.5578 6.41727 61.6089 6.41727C60.5963 6.41727 59.7554 6.72188 59.0871 7.33204C58.4188 7.94127 57.9877 8.70281 57.7929 9.61758H65.1665ZM34.8794 24V2.82558H39.0831L39.4071 4.4585H39.5686C39.9775 3.89265 40.5923 3.42465 41.412 3.0545C42.2529 2.68435 43.212 2.49881 44.2901 2.49881C45.6914 2.49881 46.9745 2.86988 48.1385 3.60927C49.3025 4.32742 50.2292 5.35111 50.9197 6.6785C51.6092 7.98465 51.9545 9.47542 51.9545 11.1527C51.9545 12.828 51.6092 14.3299 50.9197 15.6582C50.2292 16.9643 49.3025 17.9871 48.1385 18.7274C46.9745 19.4456 45.6914 19.8047 44.2901 19.8047C43.2766 19.8047 42.3711 19.6311 41.5735 19.2822C40.7972 18.9342 40.248 18.553 39.924 18.1394H39.7625V24H34.8794ZM43.4169 15.2659C44.4729 15.2659 45.3462 14.8957 46.0366 14.1563C46.7262 13.3948 47.0714 12.3923 47.0714 11.1517C47.0714 9.91111 46.7262 8.92065 46.0366 8.18035C45.3462 7.44096 44.4729 7.06988 43.4169 7.06988C42.36 7.06988 41.4877 7.44096 40.7972 8.18035C40.1077 8.92065 39.7625 9.91111 39.7625 11.1517C39.7625 12.3923 40.1077 13.3939 40.7972 14.1563C41.4877 14.8957 42.36 15.2659 43.4169 15.2659ZM23.9188 19.8047C22.668 19.8047 21.5474 19.5222 20.556 18.9554C19.5858 18.3896 18.8197 17.5847 18.2594 16.5397C17.7212 15.4727 17.4508 14.2431 17.4508 12.8502V2.82558H22.3338V12.0333C22.3338 12.948 22.6043 13.6994 23.1425 14.2865C23.7037 14.8523 24.4366 15.1357 25.3422 15.1357C26.2477 15.1357 26.9695 14.8523 27.5086 14.2865C28.0689 13.6985 28.3495 12.948 28.3495 12.0333V2.82558H33.2326V19.4788H29.0289L28.7049 18.0093H28.5434C28.1123 18.5096 27.4874 18.9342 26.6677 19.2822C25.8489 19.6311 24.9323 19.8047 23.9188 19.8047ZM8.13785 20.4582C6.19662 20.4582 4.61815 20.1305 3.40246 19.4742C2.18677 18.7957 1.30985 18 0.771692 17.0862C0.257538 16.1733 0 15.3194 0 14.5228H5.15631C5.15631 15.0148 5.40185 15.4597 5.89292 15.8576C6.40708 16.2323 7.15569 16.4197 8.13692 16.4197C9.096 16.4197 9.79754 16.2794 10.2425 15.9979C10.7095 15.6942 10.9431 15.3305 10.9431 14.9096C10.9431 14.4647 10.7917 14.1139 10.4871 13.8563C10.1834 13.5988 9.64523 13.4114 8.87354 13.2942L6.20769 12.8723C2.11662 12.241 0.0701538 10.4613 0.0701538 7.53511C0.0701538 6.50496 0.374769 5.55696 0.982154 4.69111C1.58954 3.82435 2.49046 3.13388 3.68308 2.61881C4.87569 2.10373 6.30185 1.84619 7.96246 1.84619C9.64615 1.84619 11.0834 2.15081 12.276 2.75911C13.4686 3.34435 14.3686 4.09388 14.9769 5.00681C15.5852 5.89665 15.8889 6.7745 15.8889 7.64035H10.7677C10.7677 7.17235 10.5111 6.7625 9.996 6.41081C9.50492 6.06004 8.82738 5.88465 7.96246 5.88465C7.11969 5.88465 6.46523 6.04804 5.99815 6.37573C5.55323 6.68035 5.33169 7.04311 5.33169 7.46496C5.33169 8.14342 6.00923 8.58835 7.36615 8.79881L10.1714 9.22065C14.1702 9.80588 16.1695 11.6788 16.1695 14.8394C16.1695 15.8696 15.8649 16.8176 15.2575 17.6834C14.6732 18.5262 13.7723 19.2056 12.5566 19.7207C11.364 20.2117 9.89077 20.4582 8.13692 20.4582H8.13785Z" fill="white"/>
<circle cx="82.6165" cy="16.1539" r="3.23077" fill="#F4B43E"/>
</svg>
