<svg width="330" height="71" viewBox="0 0 330 71" fill="none" xmlns="http://www.w3.org/2000/svg">
<path d="M0 0H71.3275C71.3275 9.04581 71.3306 18.0932 71.3259 27.139C73.5377 23.5559 77.1413 20.8891 81.1966 19.7745C84.6852 18.7985 88.4178 18.8032 91.9427 19.5825C94.8661 20.2468 97.6526 21.6715 99.7353 23.8488C102.108 26.2857 103.496 29.5398 104.071 32.8615C104.609 35.7834 104.397 38.7651 104.441 41.7184C104.439 51.1279 104.442 60.5389 104.439 69.95C100.6 69.9515 96.7615 69.95 92.9234 69.95C92.9203 60.9608 92.9218 51.9701 92.9218 42.981C92.9045 41.2461 92.9628 39.5097 92.8793 37.7748C92.7392 35.5157 92.2213 33.1748 90.8139 31.3502C89.8158 30.0436 88.3407 29.1399 86.7475 28.7574C85.4661 28.422 84.1311 28.4346 82.8165 28.463C80.1135 28.5763 77.5081 29.7743 75.5654 31.6414C72.801 34.2658 71.3574 38.0928 71.3275 41.8711C71.3275 51.2302 71.329 60.5909 71.3259 69.95C67.4831 69.9515 63.6402 69.9515 59.7974 69.95C59.7943 50.2148 59.7974 30.4796 59.7959 10.7445C52.0378 10.7445 44.2813 10.7445 36.5249 10.7445C36.5217 30.4843 36.5249 50.2242 36.5217 69.9626C32.5388 69.9641 28.5559 69.9626 24.5729 69.9641C24.5698 50.2242 24.5745 30.4843 24.5714 10.746C16.3804 10.7397 8.1894 10.7539 0 10.7382V0Z" fill="white"/>
<path d="M200.379 0H211.859C211.857 23.3214 211.86 46.6428 211.857 69.9641C208.032 69.9626 204.206 69.9657 200.381 69.9626C200.379 67.7271 200.377 65.4916 200.381 63.2561C199.252 65.1185 197.597 66.6093 195.777 67.7822C193.104 69.4966 190.017 70.5435 186.859 70.8552C184.954 71.1228 183.026 70.937 181.137 70.6363C178.249 70.1499 175.472 69.007 173.09 67.3004C170.712 65.6081 168.736 63.3821 167.229 60.8884C164.391 56.1892 163.183 50.6367 163.213 45.1834C163.166 41.8947 163.575 38.5887 164.531 35.437C165.945 30.7331 168.637 26.3345 172.535 23.2899C176.082 20.4782 180.608 18.9827 185.127 19.0204C188.613 18.9638 192.116 19.8611 195.116 21.6448C197.224 22.8963 199.116 24.5839 200.382 26.7014C200.376 17.802 200.381 8.90098 200.379 0ZM185.055 28.6173C183.103 28.9479 181.256 29.842 179.773 31.1534C177.979 32.7245 176.719 34.8325 175.927 37.0664C174.685 40.6148 174.468 44.4608 174.876 48.1777C175.316 51.8993 176.636 55.6838 179.351 58.3633C181.47 60.4964 184.499 61.6456 187.5 61.5024C189.617 61.611 191.741 61.0002 193.518 59.8541C196.226 58.1256 198.145 55.3548 199.216 52.3574C200.321 49.3206 200.529 46.0351 200.311 42.833C200.067 39.6829 199.135 36.5406 197.35 33.9116C195.933 31.8193 193.951 30.0593 191.579 29.1383C189.516 28.3087 187.223 28.3276 185.055 28.6173Z" fill="white"/>
<path d="M269.891 0H273.613C276.02 0.159002 278.452 0.0708426 280.872 0.149557C272.349 23.4646 263.822 46.7797 255.294 70.0932C251.636 70.0381 247.977 70.0066 244.319 69.9484C252.829 46.627 261.37 23.3167 269.891 0Z" fill="#FFFF00"/>
<path d="M282.958 6.66121C283.226 6.50379 283.545 6.57463 283.846 6.55889C290.507 6.56046 297.167 6.56046 303.83 6.55889C304.343 6.54314 304.889 6.55888 305.346 6.83596C306.229 7.31454 306.678 8.45589 306.338 9.40518C305.492 11.68 304.612 13.9423 303.77 16.2187C303.595 16.7398 304.069 17.3333 304.614 17.2907C311.706 17.297 318.796 17.2782 325.887 17.3018C326.748 17.3364 326.94 18.695 326.125 18.9705C312.704 25.1684 299.282 31.3632 285.861 37.5612C285.22 37.9784 284.31 37.2542 284.597 36.541C285.541 34.0096 286.508 31.4845 287.46 28.9562C287.715 28.4634 287.345 27.8069 286.801 27.7534C283.136 27.7345 279.471 27.7629 275.808 27.7392C275.299 27.7078 274.976 27.0954 275.223 26.653C277.689 20.1386 280.154 13.6243 282.618 7.10988C282.675 6.92727 282.786 6.76039 282.958 6.66121Z" fill="#FFFF00"/>
<path d="M124.237 20.4813C127.084 19.362 130.139 18.863 133.184 18.7386C136.348 18.6174 139.547 18.8315 142.622 19.6186C145.32 20.3113 147.922 21.4826 150.1 23.2379C151.954 24.7209 153.47 26.6163 154.549 28.7306C155.714 31.0022 156.397 33.5006 156.735 36.0258C157.152 39.0027 156.967 42.0175 157.008 45.0133C157.008 53.3428 157.008 61.6724 157.009 70.0019C153.16 70.005 149.313 70.0019 145.465 70.0035C145.462 60.997 145.465 51.9905 145.463 42.9841C145.451 40.9249 145.569 38.8343 145.073 36.8176C144.544 34.4609 143.248 32.2192 141.24 30.8291C138.856 29.1525 135.793 28.7416 132.954 29.0911C130.52 29.3855 128.132 30.5016 126.564 32.4207C124.743 34.6026 124.077 37.515 124.067 40.3031C124.064 50.2022 124.067 60.1028 124.066 70.0019C120.218 70.005 116.369 70.0019 112.522 70.0035C112.522 60.2602 112.522 50.517 112.522 40.7754C112.485 37.5087 112.86 34.2059 113.956 31.1156C114.823 28.6597 116.18 26.3597 118.022 24.5083C119.768 22.7326 121.925 21.3881 124.237 20.4813Z" fill="white"/>
<path d="M236.747 19.3573C239.18 18.9511 241.655 18.926 244.117 18.9448C244.117 22.3642 244.12 25.7835 244.117 29.2029C242.236 29.195 240.314 29.1619 238.499 29.7271C236.465 30.319 234.626 31.5989 233.442 33.3637C232.359 34.9458 231.788 36.8334 231.578 38.7272C231.437 39.9284 231.476 41.139 231.471 42.3465C231.471 51.6474 231.473 60.9498 231.471 70.2506C227.624 70.2538 223.776 70.2522 219.929 70.2522C219.925 61.9494 219.927 53.6467 219.927 45.3439C219.969 42.1922 219.768 39.0185 220.254 35.8904C220.703 32.8394 221.679 29.8247 223.4 27.246C224.806 25.1129 226.722 23.3261 228.929 22.0399C231.322 20.6325 234.015 19.795 236.747 19.3573Z" fill="white"/>
</svg>
