<svg width="89" height="24" viewBox="0 0 89 24" fill="none" xmlns="http://www.w3.org/2000/svg">
<g clip-path="url(#clip0_7699_2166)">
<path d="M26.386 0H22.9395V3.44127H26.386V0Z" fill="#06FC88"/>
<path d="M69.8759 9.25146H65.9482V13.1729H69.8759V9.25146Z" fill="#06FC88"/>
<path d="M81.6902 0.0160069L73.627 0V3.44127H75.9514L69.876 19.1591H74.1395L75.5181 15.5257H83.3734L84.7039 19.1591H88.9999L81.6902 0.0160069ZM76.6406 12.0845L79.4458 4.6097L82.2028 12.0845H76.6406Z" fill="white"/>
<path d="M15.7417 0H0V3.44127H5.97928V19.1751H9.76239V3.44127H15.7417V0Z" fill="white"/>
<path d="M15.7413 7.01079V5.12207H12.0703V19.1752H15.8214V12.9649C15.8214 9.21957 17.3763 8.56333 21.1434 8.56333V5.10606C19.9251 4.86597 17.6489 4.75393 15.7413 7.01079Z" fill="white"/>
<path d="M26.4507 5.12231H22.876V19.1755H26.4507V5.12231Z" fill="white"/>
<path d="M36.4527 4.72192C34.6093 4.72192 33.1024 5.4742 31.8521 7.21884H31.804V5.12207H28.2773V23.7849H31.8521V17.3666C32.6536 18.519 34.0482 19.6074 36.1963 19.6074C39.5787 19.6074 42.6564 16.8064 42.6564 12.1006C42.6564 8.05112 40.332 4.72192 36.4527 4.72192ZM35.3787 16.2302C33.3108 16.2302 31.7719 14.5656 31.7719 12.1807C31.7719 9.79579 33.3108 8.09918 35.3787 8.09918C37.4466 8.09918 38.9534 9.77977 38.9534 12.1807C38.9534 14.5656 37.4787 16.2302 35.3787 16.2302Z" fill="white"/>
<path d="M56.7944 16.4381C54.9349 16.4381 53.3158 15.2857 53.0113 13.1729H63.4469V12.2126C63.4469 7.04264 60.1287 4.73779 56.57 4.73779C52.4021 4.73779 49.4365 7.90696 49.4365 12.2445C49.4365 16.5822 52.6105 19.6233 56.8264 19.6233C60.1447 19.6233 62.5493 17.8306 63.495 15.5418L60.1447 14.2133C59.5196 15.6538 58.2692 16.4381 56.7944 16.4381ZM56.5379 7.74687C58.1409 7.74687 59.5837 8.57922 59.8402 10.74H53.1876C53.5563 8.97937 54.7105 7.74687 56.5379 7.74687Z" fill="white"/>
<path d="M41.9668 0V3.44127H44.2751V19.1751H47.8499V0H41.9668Z" fill="white"/>
</g>
<defs>
<clipPath id="clip0_7699_2166">
<rect width="89" height="24" fill="white"/>
</clipPath>
</defs>
</svg>
