<svg width="127" height="24" viewBox="0 0 127 24" fill="none" xmlns="http://www.w3.org/2000/svg">
<path d="M0.656984 0.0215174C2.15801 -0.0207053 3.66432 0.0141286 5.16746 0.00357293C5.61713 -0.0291497 6.03936 0.363522 6.01931 0.818472C6.02669 8.10717 6.0193 15.398 6.02353 22.6867C6.07736 23.1385 5.72585 23.6019 5.25824 23.6071C3.78043 23.6187 2.30051 23.6124 0.821654 23.6103C0.382535 23.6272 -0.0111943 23.2324 0.00780607 22.7943C0.00147262 15.5056 0.00886178 8.21695 0.00463948 0.928251C-0.0396947 0.517635 0.237921 0.0890738 0.656984 0.0215174Z" fill="#008060"/>
<path d="M9.51361 0.0127883C10.9872 -0.0104342 12.4618 0.00962172 13.9354 0.00223274C14.3123 -0.0262676 14.6923 0.220735 14.7862 0.591239C14.84 0.844576 14.8137 1.1053 14.8189 1.3618C14.8158 8.50273 14.821 15.6426 14.8168 22.7835C14.8379 23.2152 14.4632 23.6153 14.0283 23.609C12.5832 23.6185 11.1371 23.609 9.69095 23.6132C9.3141 23.6427 8.93199 23.4 8.83382 23.0295C8.77787 22.7751 8.80532 22.5122 8.80004 22.2547C8.80321 15.1116 8.79793 7.96755 8.80321 0.82452C8.78737 0.424459 9.11249 0.0444553 9.51361 0.0127883Z" fill="#008060"/>
<path d="M18.2728 0.01699C19.7453 -0.0178438 21.2199 0.0138234 22.6935 0.00221211C22.9933 -0.0178437 23.31 0.0982685 23.4768 0.358994C23.6615 0.618664 23.6066 0.953279 23.6172 1.25095C23.6119 8.42987 23.6193 15.6088 23.6129 22.7877C23.6351 23.231 23.2371 23.6301 22.7938 23.61C21.3466 23.6153 19.8984 23.6121 18.4512 23.6121C18.0712 23.6343 17.6964 23.3619 17.6215 22.9862C17.5761 22.6758 17.6035 22.3602 17.5983 22.0488C17.5983 15.0071 17.5993 7.96436 17.5972 0.922667C17.5529 0.505718 17.8453 0.0718796 18.2728 0.01699Z" fill="#008060"/>
<path d="M33.5869 3.25805C38.1923 3.257 42.7978 3.25594 47.4033 3.25805C47.4033 4.3949 47.4043 5.5328 47.4033 6.67071C45.8009 6.67387 44.1986 6.6686 42.5962 6.67282C42.5972 11.0767 42.5972 15.4794 42.5962 19.8822C41.2028 19.8822 39.8105 19.8822 38.4172 19.8822C38.4151 15.4784 38.4182 11.0756 38.4161 6.67176C36.8074 6.67176 35.1998 6.6686 33.5911 6.67387C33.5805 5.53492 33.59 4.39596 33.5869 3.25805Z" fill="white"/>
<path d="M55.6887 3.25816C56.9269 3.25604 58.1651 3.2571 59.4033 3.2571C59.4033 4.357 59.4044 5.45585 59.4033 6.5547C58.1651 6.5547 56.9269 6.55575 55.6898 6.5547C55.6877 5.45585 55.6887 4.357 55.6887 3.25816Z" fill="white"/>
<path d="M75.375 3.2571C76.6132 3.2571 77.8514 3.25604 79.0906 3.25816C79.0896 8.79883 79.0906 14.3406 79.0896 19.8823C77.8514 19.8834 76.6132 19.8823 75.375 19.8823C75.375 14.3406 75.375 8.79883 75.375 3.2571Z" fill="white"/>
<path d="M94.0007 3.25831C98.0805 3.25725 102.159 3.25514 106.239 3.25936C106.236 4.39726 106.24 5.53622 106.237 6.67412C103.697 9.93794 101.15 13.1965 98.6177 16.4656C101.236 16.474 103.852 16.4666 106.47 16.4698C106.47 17.6077 106.472 18.7445 106.47 19.8825C102.158 19.8825 97.8472 19.8835 93.5373 19.8825C93.5352 18.7456 93.5373 17.6088 93.5352 16.473C96.0696 13.2028 98.6272 9.95061 101.152 6.67412C98.7687 6.66674 96.3842 6.67412 94.0007 6.67096C93.9996 5.53306 94.0007 4.39515 94.0007 3.25831Z" fill="white"/>
<path d="M107.993 3.2571C109.232 3.2571 110.47 3.25604 111.709 3.25816C111.708 4.357 111.709 5.45585 111.708 6.5547C110.47 6.55575 109.232 6.5547 107.994 6.5547C107.992 5.45585 107.993 4.357 107.993 3.2571Z" fill="white"/>
<path d="M85.0358 7.79207C86.5421 7.4469 88.173 7.51551 89.6149 8.09608C90.9333 8.63547 91.9361 9.79554 92.3858 11.1372C92.8186 12.3479 92.8967 13.6494 92.8756 14.9246C90.0255 14.9182 87.1755 14.9224 84.3265 14.9224C84.3391 15.6001 84.5503 16.3021 85.0548 16.7771C85.8001 17.4938 86.9612 17.6173 87.9154 17.308C88.42 17.1455 88.8021 16.7359 89.0122 16.2577C90.2694 16.2588 91.5276 16.2567 92.7859 16.2588C92.4111 17.6521 91.4664 18.8988 90.1585 19.5353C88.6786 20.2636 86.9485 20.3935 85.3388 20.1158C83.634 19.8097 82.077 18.6982 81.3234 17.1254C80.423 15.256 80.3871 12.9907 81.1756 11.077C81.8427 9.44615 83.3205 8.19214 85.0358 7.79207ZM85.5203 10.5661C84.7571 10.9461 84.3961 11.8096 84.3486 12.6213C85.9478 12.6245 87.546 12.6224 89.1452 12.6224C89.1462 11.8539 88.8623 11.0126 88.1603 10.6147C87.3634 10.1724 86.3342 10.1682 85.5203 10.5661Z" fill="white"/>
<path d="M65.1584 9.2215C66.8167 7.20853 70.1692 7.12831 72.0197 8.91644C73.3328 10.1705 73.7983 12.0578 73.8131 13.8206C73.8363 15.6277 73.4151 17.5763 72.0988 18.8968C70.2674 20.761 66.8336 20.7156 65.1584 18.6646C65.1521 20.4432 65.1584 22.2208 65.1553 23.9995C63.9171 24.0005 62.6789 23.9995 61.4417 23.9995C61.4396 18.6688 61.4407 13.3382 61.4407 8.00759C62.6789 8.00759 63.9171 8.00654 65.1563 8.00865C65.1553 8.41293 65.1553 8.81721 65.1584 9.2215ZM67.0532 10.4903C66.5254 10.6085 66.0662 10.9611 65.7886 11.4234C65.302 12.2309 65.2186 13.2073 65.2292 14.1309C65.2545 15.0145 65.3864 15.9581 65.9374 16.6812C66.7281 17.7442 68.5553 17.7283 69.3237 16.6474C69.9117 15.8357 70.0109 14.7886 70.0077 13.8164C69.9845 12.8717 69.8462 11.8425 69.2066 11.1004C68.6862 10.4935 67.809 10.313 67.0532 10.4903Z" fill="white"/>
<path d="M117.461 9.2276C119.121 7.19457 122.508 7.12807 124.351 8.94365C125.644 10.1977 126.1 12.066 126.117 13.8151C126.14 15.6127 125.726 17.5465 124.429 18.8702C122.605 20.7607 119.134 20.7291 117.459 18.6559C117.46 20.4367 117.46 22.2185 117.459 23.9992C116.221 23.9992 114.983 24.0003 113.745 23.9992C113.744 18.6686 113.745 13.338 113.745 8.00842C114.983 8.0063 116.221 8.00736 117.459 8.00736C117.458 8.41375 117.458 8.82015 117.461 9.2276ZM119.313 10.5017C118.707 10.6473 118.218 11.1097 117.958 11.666C117.565 12.4946 117.508 13.4351 117.54 14.3387C117.584 15.1704 117.738 16.0508 118.272 16.72C119.069 17.7334 120.834 17.7154 121.604 16.6778C122.215 15.8618 122.316 14.7957 122.311 13.8077C122.288 12.8735 122.151 11.8644 121.532 11.1245C121.004 10.489 120.089 10.3022 119.313 10.5017Z" fill="white"/>
<path d="M51.8514 8.36086C52.6125 7.85418 53.5847 7.81724 54.4555 8.00302C54.4555 9.08181 54.4555 10.1617 54.4555 11.2404C53.4876 11.0811 52.4256 11.2172 51.6308 11.8284C50.8845 12.3815 50.5024 13.3146 50.4897 14.2266C50.476 16.1108 50.4887 17.9971 50.4834 19.8824C49.2452 19.8834 48.007 19.8824 46.7699 19.8824C46.7678 15.924 46.7688 11.9656 46.7688 8.00724C48.007 8.00724 49.2452 8.00618 50.4844 8.00829C50.4876 8.66908 50.476 9.32987 50.4918 9.99171C50.8265 9.36365 51.2307 8.73981 51.8514 8.36086Z" fill="white"/>
<path d="M55.6889 8.00938C56.9271 8.00726 58.1653 8.00832 59.4035 8.00832C59.4035 11.9667 59.4046 15.9251 59.4035 19.8835C58.1653 19.8835 56.9271 19.8845 55.6889 19.8835C55.6879 15.9251 55.6889 11.9667 55.6889 8.00938Z" fill="white"/>
<path d="M107.993 8.00832C109.232 8.00832 110.47 8.00726 111.709 8.00938C111.708 11.9667 111.709 15.9251 111.708 19.8835C110.47 19.8845 109.232 19.8835 107.994 19.8835C107.992 15.9251 107.993 11.9667 107.993 8.00832Z" fill="white"/>
</svg>
