<svg width="101" height="24" viewBox="0 0 101 24" fill="none" xmlns="http://www.w3.org/2000/svg">
<g clip-path="url(#clip0_7762_241)">
<path d="M30.5684 0.373291H26.376V4.5679H30.5684V0.373291Z" fill="url(#paint0_linear_7762_241)"/>
<path d="M101.001 15.0261H96.8086V19.2208H101.001V15.0261Z" fill="url(#paint1_linear_7762_241)"/>
<path d="M75.2852 9.15527H71.0928V13.3499H75.2852V9.15527Z" fill="url(#paint2_linear_7762_241)"/>
<path d="M89.0126 15.2217H82.4389L81.2047 19.2217H76.375L83.3243 0.0270996H88.154L95.0765 19.2217H90.2468L89.0126 15.2217ZM83.5389 11.5438H87.9394L85.766 4.45661H85.7123L83.5389 11.5438Z" fill="white"/>
<path d="M61.9964 16.4294C63.4722 16.4294 64.1698 15.7314 64.4381 15.0603H68.7043C67.953 17.8253 65.8065 19.6508 62.077 19.6508C57.5156 19.6508 54.752 16.6441 54.752 12.3488C54.752 8.16095 57.4619 5.04688 61.8355 5.04688C66.5311 5.04688 68.919 8.48309 68.919 13.4764H59.0451C59.0451 15.4093 60.467 16.4294 61.9964 16.4294ZM61.8355 7.99987C60.1988 7.99987 59.0451 8.96632 59.0451 10.8723H64.626C64.626 8.96632 63.4722 7.99987 61.8355 7.99987Z" fill="white"/>
<path d="M48.8135 0.0270996H53.1065V19.2217H48.8135V0.0270996Z" fill="white"/>
<path d="M41.0941 5.04688C44.7432 5.04688 47.0776 7.83881 47.0776 12.3488C47.0776 16.8589 44.7432 19.6508 41.0941 19.6508C39.1086 19.6508 37.6597 18.577 37.123 17.8522H37.0694V23.973H32.7764V5.4764H37.0694V6.84552H37.123C37.6597 6.12069 39.1086 5.04688 41.0941 5.04688ZM39.9672 16.4294C41.7112 16.4294 42.7845 15.0333 42.7845 12.3488C42.7845 9.6643 41.7112 8.26833 39.9672 8.26833C38.2232 8.26833 37.1499 9.6643 37.1499 12.3488C37.1499 15.0333 38.2232 16.4294 39.9672 16.4294Z" fill="white"/>
<path d="M26.251 5.47583H30.5441V19.2207H26.251V5.47583Z" fill="white"/>
<path d="M23.5444 5.23511C23.92 5.23511 24.242 5.23511 24.7249 5.34249V9.10086H24.6713C22.4711 8.69818 20.1368 9.90623 20.1368 12.8324V19.2217H15.8438V5.47672H20.1368V7.73174H20.1904C20.8612 6.20155 22.0417 5.23511 23.5444 5.23511Z" fill="white"/>
<path d="M5.58096 19.2217V3.97338H0V0.0270996H15.9648V3.97338H10.4106V19.2217H5.58096Z" fill="white"/>
</g>
<defs>
<linearGradient id="paint0_linear_7762_241" x1="24.3091" y1="2.4902" x2="30.5684" y2="2.47923" gradientUnits="userSpaceOnUse">
<stop stop-color="#E22323"/>
<stop offset="0.5" stop-color="#F06B28"/>
<stop offset="1" stop-color="#E96991"/>
</linearGradient>
<linearGradient id="paint1_linear_7762_241" x1="94.7416" y1="17.143" x2="101.001" y2="17.1321" gradientUnits="userSpaceOnUse">
<stop stop-color="#E22323"/>
<stop offset="0.5" stop-color="#F06B28"/>
<stop offset="1" stop-color="#E96991"/>
</linearGradient>
<linearGradient id="paint2_linear_7762_241" x1="69.0258" y1="11.2722" x2="75.2852" y2="11.2612" gradientUnits="userSpaceOnUse">
<stop stop-color="#E22323"/>
<stop offset="0.5" stop-color="#F06B28"/>
<stop offset="1" stop-color="#E96991"/>
</linearGradient>
<clipPath id="clip0_7762_241">
<rect width="101" height="24" fill="white"/>
</clipPath>
</defs>
</svg>
