<svg width="1526" height="349" viewBox="0 0 1526 349" fill="none" xmlns="http://www.w3.org/2000/svg">
<g clip-path="url(#clip0_989_499)">
<ellipse cx="173.56" cy="173.569" rx="159.785" ry="159.794" fill="#FEFEFE"/>
<path d="M139.075 4.52873C173.19 -2.55703 209.442 0.710879 241.612 14.195C271.011 26.3571 296.836 46.9164 315.522 72.6472C336.471 101.424 348.379 136.8 348.527 172.429C349.151 200.233 342.721 228.132 330.243 252.964C314.496 284.458 288.904 310.951 257.961 327.745C233.184 341.409 205.022 348.474 176.786 349.002H172.947C136.294 348.516 99.8304 336.47 70.5477 314.335C40.8102 292.126 18.3908 260.24 7.90023 224.621C0.793701 200.55 -1.13098 174.946 2.48573 150.104C7.47722 114.094 24.3129 79.9127 49.6511 53.8752C73.6356 28.9905 105.203 11.477 139.075 4.52873ZM167.617 75.8305C149.28 79.0667 134.031 92.5719 125.771 108.88C118.39 123.929 118.231 141.675 122.768 157.592C126.046 168.559 132.624 178.162 139.868 186.887C151.744 201.037 165.196 213.749 178.616 226.419C193.77 240.601 209.157 254.561 224.787 268.225C226.902 270.308 228.636 272.973 231.555 274.041C236.747 275.977 243.367 274.602 246.582 269.853C269.065 239.131 291.664 208.482 314.063 177.686C318.314 171.964 316.22 162.89 309.885 159.633C304.756 156.513 297.428 157.824 293.79 162.615C274.184 189.308 254.662 216.076 235.129 242.832C234.907 242.853 234.453 242.896 234.22 242.917C212.615 223.976 191.327 204.622 171.107 184.179C164.138 177.03 157.307 169.616 151.818 161.24C146.509 153.361 144.246 143.727 144.616 134.293C144.764 125.156 148.836 116.293 155.35 109.937C160.817 104.121 168.442 99.9432 176.564 99.9538C187.996 99.4885 198.444 106.638 204.757 115.743C213.144 128.868 210.754 146.963 201.246 158.871C198.243 162.594 194.605 165.788 190.618 168.421C185.267 172.144 183.967 180.266 187.763 185.533C191.147 190.789 198.698 192.534 204.102 189.467C211.779 184.708 218.484 178.352 223.571 170.875C233.469 156.714 236.98 138.428 233.744 121.528C228.192 92.2969 197.143 70.0561 167.617 75.8305ZM38.0501 160.838C32.8154 164.614 31.7896 172.8 35.639 177.897C57.9949 208.493 80.372 239.067 102.739 269.663C106.937 275.755 116.825 276.537 121.774 270.953C133.079 257.934 144.172 244.725 155.414 231.633C160.585 226.101 158.999 216.023 152.23 212.512C147.059 209.529 139.942 210.904 136.283 215.61C128.764 224.547 121.097 233.356 113.62 242.325C95.3359 217.704 77.3264 192.872 59.1582 168.167C57.0326 165.428 55.3194 162.203 52.3478 160.278C48.1177 157.37 42.0581 157.697 38.0501 160.838Z" fill="url(#paint0_linear_989_499)"/>
<path d="M751.895 84.6087C756.644 84.6087 761.402 84.6193 766.151 84.5981C766.193 135.023 766.172 185.449 766.172 235.863C761.402 235.821 756.654 235.853 751.895 235.842C751.895 185.427 751.895 135.023 751.895 84.6087Z" fill="white"/>
<path d="M787.851 84.6071C792.599 84.5965 797.347 84.6282 802.096 84.5859C802.17 135.011 802.106 185.426 802.127 235.851C797.369 235.83 792.61 235.84 787.851 235.84C787.851 185.426 787.851 135.022 787.851 84.6071Z" fill="white"/>
<path d="M937.987 92.5479C942.756 92.5267 947.526 92.5373 952.295 92.5373C952.295 105.048 952.295 117.57 952.295 130.081C973.096 130.081 993.887 130.081 1014.69 130.081C1014.69 134.491 1014.69 138.891 1014.69 143.301C993.887 143.301 973.096 143.301 952.295 143.301C952.295 160.751 952.285 178.201 952.306 195.651C952.369 202.758 953.384 210.256 957.699 216.147C962.542 222.979 971.33 225.824 979.42 225.601C987.468 225.824 996.172 223.01 1001.04 216.253C1005.68 210.097 1006.49 202.07 1006.52 194.593C1011.18 194.593 1015.83 194.593 1020.51 194.593C1020.99 205.328 1018.98 216.718 1012.22 225.369C1005.92 233.565 995.706 237.869 985.607 238.811C974.122 239.762 961.654 238.377 952.263 231.143C942.894 224.195 938.452 212.361 938.029 201.002C937.987 164.844 938.061 128.696 937.987 92.5479Z" fill="white"/>
<path d="M643.595 136.008C657.015 127.166 674.041 125.146 689.618 128.065C704.424 130.857 718.129 139.974 725.479 153.257C730.1 161.284 732.469 170.495 732.85 179.707C732.871 198.415 732.86 217.134 732.86 235.843C728.451 235.843 724.041 235.843 719.641 235.843C719.631 227.128 719.652 218.425 719.631 209.71C717.59 217.23 712.323 223.522 706.507 228.546C694.494 238.36 677.901 240.782 662.958 238.074C648.058 235.367 634.31 226.103 626.908 212.788C619.738 200.33 618.31 185.259 620.647 171.278C623.185 157.085 631.402 143.844 643.595 136.008ZM665.771 141.433C653.282 144.14 642.432 153.289 637.747 165.186C632.925 177.169 633.242 191.16 638.678 202.889C643.31 212.65 652.087 220.455 662.483 223.554C672.465 226.674 683.548 226.346 693.299 222.528C702.309 218.985 709.796 211.857 714.026 203.174C719.282 192.028 719.863 178.818 715.845 167.196C712.493 157.233 704.931 148.783 695.435 144.32C686.234 140.058 675.617 139.286 665.771 141.433Z" fill="white"/>
<path d="M859.731 127.938C874.758 125.262 891.075 127.208 904.094 135.574C916.075 142.998 924.483 155.636 927.253 169.416C928.596 175.243 928.596 181.24 928.501 187.194C895.739 187.215 862.988 187.152 830.236 187.226C831.199 198.404 836.222 209.488 845.105 216.563C856.569 225.965 872.886 227.699 886.803 223.532C895.845 220.804 903.628 214.469 908.228 206.23C913.569 206.22 918.909 206.241 924.26 206.22C918.412 220.761 905.69 232.194 890.631 236.509C873.626 241.363 854.2 239.66 839.257 229.782C827.138 221.967 818.963 208.821 816.351 194.734C813.866 180.796 815.473 165.757 822.739 153.415C830.427 139.91 844.523 130.635 859.731 127.938ZM848.722 146.562C838.855 152.548 832.383 163.187 830.628 174.492C858.176 174.503 885.735 174.514 913.294 174.492C912.046 166.666 908.81 159.031 903.364 153.203C889.849 138.355 865.558 136.399 848.722 146.562Z" fill="white"/>
<path d="M1119.76 128.39C1136.14 124.889 1154.31 127.015 1168.3 136.681C1179.59 144.349 1187.14 156.849 1189.63 170.185C1191.2 177.165 1190.69 184.346 1190.77 191.443C1190.75 204.853 1190.77 218.252 1190.77 231.662C1190.27 246.193 1185.81 261.507 1174.71 271.522C1163.43 281.813 1147.49 285.091 1132.62 284.541C1118.91 284.382 1104.55 280.501 1094.4 270.856C1088.38 265.209 1084.24 257.795 1081.88 249.916C1086.82 249.779 1091.77 249.874 1096.72 249.853C1100.03 259.011 1107.93 266.108 1117.14 269.058C1128.22 272.569 1140.44 272.76 1151.56 269.312C1160.9 266.393 1168.79 259.244 1172.42 250.138C1177.47 238.209 1176.3 224.978 1176.52 212.34C1170.94 224.894 1158.7 233.809 1145.41 236.633C1130.46 239.848 1114.05 237.68 1101.09 229.293C1089.3 221.89 1081.27 209.273 1078.71 195.662C1076.26 182.379 1077.4 168.091 1083.67 155.961C1090.64 141.864 1104.46 131.69 1119.76 128.39ZM1123.73 141.419C1111.73 144.032 1101.07 152.45 1096.2 163.798C1088.52 180.962 1091.92 203.753 1107.17 215.714C1118.44 224.693 1134.23 226.544 1147.87 222.715C1159.1 219.543 1168.72 211.124 1173.03 200.231C1180.14 182.855 1175.99 160.318 1160.58 148.717C1150.28 140.711 1136.27 138.68 1123.73 141.419Z" fill="white"/>
<path d="M1334.6 138.631C1341.19 131.799 1350.56 128.266 1359.86 127.219C1373.05 125.876 1387.53 127.632 1398.01 136.452C1408.66 145.484 1412.4 160.216 1411.78 173.71C1407.12 173.71 1402.46 173.721 1397.82 173.7C1397.65 164.858 1396.26 155.287 1389.93 148.593C1382.28 140.598 1370.21 139.191 1359.8 140.957C1352.19 142.216 1344.92 146.753 1341.38 153.754C1337.74 160.385 1337.25 168.126 1337.22 175.529C1337.3 195.602 1337.12 215.664 1337.32 235.727C1332.53 235.959 1327.74 235.79 1322.96 235.843C1322.96 213.274 1322.95 190.706 1322.97 168.137C1323.42 157.434 1326.75 146.266 1334.6 138.631Z" fill="white"/>
<path d="M449.446 130.085C454.183 130.064 458.91 130.138 463.648 130.032C463.838 150.507 463.648 170.992 463.743 191.477C463.881 199.399 465.097 207.69 469.75 214.332C480.611 230.322 508.434 229.296 518.057 212.47C522.732 204.961 523.26 195.845 522.943 187.236C522.943 168.179 522.933 149.121 522.943 130.075C527.787 130.096 532.63 130.075 537.484 130.085C537.484 147.694 537.484 165.292 537.484 182.89C537.347 193.169 537.103 204.274 542.888 213.263C552.289 228.429 576.602 229.878 588.446 216.923C594.579 210.017 596.314 200.467 596.42 191.509C596.472 171.034 596.42 150.56 596.441 130.085C601.178 130.064 605.905 130.138 610.643 130.032C610.823 151.924 610.664 173.816 610.728 195.708C610.389 206.706 607.249 218.097 599.772 226.441C592.084 235.05 580.292 239.216 568.913 239.037C559.396 239.364 549.55 236.879 541.947 230.999C536.723 227.097 532.746 221.682 530.187 215.717C525.333 227.128 514.705 235.779 502.512 238.085C491.693 240.094 479.955 239.301 470.131 234.024C456.542 227.044 449.921 211.444 449.467 196.776C449.414 174.546 449.456 152.315 449.446 130.085Z" fill="white"/>
<path d="M1204.51 130.077C1209.28 130.108 1214.06 129.992 1218.84 130.161C1218.72 145.983 1218.82 161.814 1218.79 177.646C1218.74 186.128 1218.73 194.843 1221.69 202.922C1224.81 212.176 1232.19 219.928 1241.46 223.164C1251 226.432 1261.68 226.485 1271.26 223.323C1280.83 220.14 1288.51 212.155 1291.61 202.595C1294.6 194.282 1294.42 185.324 1294.4 176.61C1294.4 161.106 1294.4 145.591 1294.4 130.077C1299.15 130.066 1303.91 130.108 1308.67 130.045C1308.69 144.502 1308.67 158.948 1308.68 173.395C1308.55 183.622 1309.45 194.039 1306.6 204.001C1303.61 215.909 1295.98 226.855 1284.98 232.619C1273.63 238.838 1260.24 239.885 1247.6 238.595C1235.03 237.167 1222.52 231.509 1214.81 221.219C1207.44 211.552 1204.45 199.147 1204.5 187.143C1204.52 168.118 1204.5 149.102 1204.51 130.077Z" fill="white"/>
<path d="M1418.13 130.08C1422.9 130.102 1427.67 130.017 1432.45 130.133C1432.37 148.112 1432.43 166.091 1432.42 184.059C1432.51 193.006 1433.81 202.323 1438.72 210.001C1443.33 217.542 1451.23 222.756 1459.84 224.532C1468.59 226.362 1477.96 226.034 1486.33 222.777C1495.28 219.35 1502.3 211.619 1505.25 202.545C1507.86 195.259 1508.04 187.412 1508.02 179.755C1508.01 163.193 1508.02 146.642 1508.02 130.08C1512.77 130.08 1517.53 130.091 1522.3 130.07C1522.3 145.225 1522.3 160.391 1522.3 175.546C1522.19 184.08 1522.86 192.731 1520.9 201.128C1518.79 211.408 1513.67 221.296 1505.46 228.001C1495.62 236.124 1482.49 239.328 1469.92 239.021C1457.9 239.222 1445.44 236.198 1435.85 228.71C1422.39 218.335 1417.4 200.43 1418.13 184.059C1418.13 166.059 1418.13 148.07 1418.13 130.08Z" fill="white"/>
</g>
<defs>
<linearGradient id="paint0_linear_989_499" x1="-0.000218077" y1="173.569" x2="349.875" y2="173.569" gradientUnits="userSpaceOnUse">
<stop stop-color="#302882"/>
<stop offset="1" stop-color="#45AFC9"/>
</linearGradient>
<clipPath id="clip0_989_499">
<rect width="1526" height="349" fill="white"/>
</clipPath>
</defs>
</svg>
